<svg id="Layer_1" data-name="Layer 1" xmlns="http://www.w3.org/2000/svg" xmlns:xlink="http://www.w3.org/1999/xlink" viewBox="0 0 50 50"><defs><style>.cls-1{fill:#fff;}.cls-2{mask:url(#mask);}.cls-3{fill:#0cf;}.cls-4{filter:url(#luminosity-invert-noclip);}</style><filter id="luminosity-invert-noclip" x="0" y="4.99" width="50" height="39.71" filterUnits="userSpaceOnUse" color-interpolation-filters="sRGB"><feColorMatrix values="-1 0 0 0 1 0 -1 0 0 1 0 0 -1 0 1 0 0 0 1 0" result="invert"/><feFlood flood-color="#fff" result="bg"/><feBlend in="invert" in2="bg"/></filter><mask id="mask" x="0" y="4.99" width="50" height="39.71" maskUnits="userSpaceOnUse"><g class="cls-4"><path class="cls-1" d="M7.55,35.76l7.22-7.54a.17.17,0,0,0,0-.26L7.46,20.33a.2.2,0,0,0-.28,0L4.3,23.09a.19.19,0,0,0,0,.27L8.6,27.91a.19.19,0,0,1,0,.26L4.45,32.72a.2.2,0,0,0,0,.27l2.81,2.77A.19.19,0,0,0,7.55,35.76Z"/><rect class="cls-1" x="13.69" y="31.43" width="11.05" height="4.39" rx="1.01"/></g></mask></defs><title>command-line</title><g class="cls-2"><rect class="cls-3" y="4.99" width="50" height="7.55"/><rect y="12.54" width="50" height="32.16"/></g></svg>