<svg id="Layer_1" data-name="Layer 1" xmlns="http://www.w3.org/2000/svg" viewBox="0 0 300 300"><defs><style>.cls-1{fill:#639;}.cls-2{fill:#fff;}</style></defs><title>Gatsby</title><circle class="cls-1" cx="150" cy="150" r="137.59"/><path class="cls-2" d="M239.48,87.62l-15.62,13.2c-10.34-14-22.83-24.42-38.43-31.08-44.22-18.87-96.8,2.56-115.31,46.92-1.55,3.71-.78,5.83,1.87,8.47q52.74,52.5,105.39,105.08c1.59,1.57,5.23,2.91,7,2.18,26.33-10.84,43.38-30.27,51.79-57.37a19.31,19.31,0,0,0,.31-3.65c-13.42,0-26.64-.2-39.86.1-5,.12-6.71-1.35-6.68-6.5.11-14.62-.1-14.62,14.45-14.62q24.19,0,48.38,0c2.19,0,4.38.19,7.08.31.65,15.45-2.63,29.63-8.6,43.09-13.77,31-37.17,51.44-69.56,61.66-4.48,1.41-7.57.78-11.13-2.82Q110.41,191.94,49.74,131.78c-3.64-3.6-4.11-6.76-2.82-11.2,14.38-49.51,62.8-82.93,114.3-77.9C193.5,45.83,219.46,61,239.48,87.62Z"/><path class="cls-2" d="M147,259.23c-55.13.16-104-48.43-103.76-104Z"/></svg>