<svg id="Layer_1" data-name="Layer 1" xmlns="http://www.w3.org/2000/svg" xmlns:xlink="http://www.w3.org/1999/xlink" viewBox="0 0 50 50"><defs><style>.cls-1{filter:url(#luminosity-noclip);}.cls-2{mask:url(#mask);}.cls-3{fill:#f05133;}.cls-4{fill:#fff;}</style><filter id="luminosity-noclip" x="0.55" y="0.55" width="48.9" height="48.9" filterUnits="userSpaceOnUse" color-interpolation-filters="sRGB"><feFlood flood-color="#fff" result="bg"/><feBlend in="SourceGraphic" in2="bg"/></filter><mask id="mask" x="0.55" y="0.55" width="48.9" height="48.9" maskUnits="userSpaceOnUse"><path class="cls-1" d="M39.3,25.49a3.91,3.91,0,1,1-7.82,0A4.08,4.08,0,0,1,31.77,24l-4.9-4.95L26.8,19l0,0V32l.11,0a3.91,3.91,0,1,1-3.24.08V18.86a3.89,3.89,0,0,1-1.9-5L16.15,8.21,18.28,6l5.77,5.66a3.65,3.65,0,0,1,1.29-.23,3.91,3.91,0,0,1,3.91,3.91,4,4,0,0,1-.19,1.21l5.27,5.16a4.05,4.05,0,0,1,1.06-.14A3.91,3.91,0,0,1,39.3,25.49Z"/></mask></defs><title>Git</title><g class="cls-2"><rect class="cls-3" x="7.03" y="7.03" width="35.93" height="35.93" rx="2.31" transform="translate(25 -10.36) rotate(45)"/></g><path class="cls-4" d="M26.84,18.71h0v0Z"/></svg>