<svg id="Layer_1" data-name="Layer 1" xmlns="http://www.w3.org/2000/svg" xmlns:xlink="http://www.w3.org/1999/xlink" viewBox="0 0 50 50"><defs><style>.cls-1{fill:#fff;filter:url(#luminosity-invert-noclip);}.cls-2{mask:url(#mask);}.cls-3{fill:#e55228;}.cls-4{fill:#f1672e;}</style><filter id="luminosity-invert-noclip" x="3" y="0" width="44.01" height="50" filterUnits="userSpaceOnUse" color-interpolation-filters="sRGB"><feColorMatrix values="-1 0 0 0 1 0 -1 0 0 1 0 0 -1 0 1 0 0 0 1 0" result="invert"/><feFlood flood-color="#fff" result="bg"/><feBlend in="invert" in2="bg"/></filter><mask id="mask" x="3" y="0" width="44.01" height="50" maskUnits="userSpaceOnUse"><polygon class="cls-1" points="38.78 9.44 11.22 9.44 12.76 25.89 31.76 25.89 31.12 33.04 24.81 34.74 18.88 33.16 18.5 28.83 13.01 28.83 13.78 37.37 25.89 40.31 36.22 37.37 37.76 20.54 17.73 20.54 17.22 14.8 38.27 14.8 38.78 9.44"/></mask></defs><title>HTML</title><g class="cls-2"><polygon class="cls-3" points="43.3 45.15 25.31 50 7.33 45.28 3 0 47 0 43.3 45.15"/><polygon class="cls-4" points="39.99 42.09 24.94 46.05 24.94 3.7 43.18 3.7 39.99 42.09"/></g></svg>