<svg id="Layer_1" data-name="Layer 1" xmlns="http://www.w3.org/2000/svg" xmlns:xlink="http://www.w3.org/1999/xlink" viewBox="0 0 50 50"><defs><style>.cls-1{fill:#fff;filter:url(#luminosity-invert-noclip);}.cls-2{mask:url(#mask);}.cls-3{fill:#e6a327;}.cls-4{fill:#f2bf26;}</style><filter id="luminosity-invert-noclip" x="3" y="0" width="44.01" height="50" filterUnits="userSpaceOnUse" color-interpolation-filters="sRGB"><feColorMatrix values="-1 0 0 0 1 0 -1 0 0 1 0 0 -1 0 1 0 0 0 1 0" result="invert"/><feFlood flood-color="#fff" result="bg"/><feBlend in="invert" in2="bg"/></filter><mask id="mask" x="3" y="0" width="44.01" height="50" maskUnits="userSpaceOnUse"><polygon class="cls-1" points="32.46 17.47 38.07 17.47 36.93 5.61 14.99 5.61 13.07 25.77 31.95 25.77 31.19 32.78 25 34.5 19.07 32.78 18.69 28.44 13.07 28.44 13.84 37.12 24.94 40.15 36.42 37.12 38.07 20.15 19.2 20.15 19.96 11.48 31.95 11.73 32.46 17.47"/></mask></defs><title>JavaScript</title><g class="cls-2"><polygon class="cls-3" points="43.3 45.15 25.31 50 7.33 45.28 3 0 47 0 43.3 45.15"/><polygon class="cls-4" points="39.99 42.09 24.94 46.05 24.94 3.7 43.18 3.7 39.99 42.09"/></g></svg>