<svg id="Layer_1" data-name="Layer 1" xmlns="http://www.w3.org/2000/svg" viewBox="0 0 300 300"><title>next</title><g id="Page-1"><g id="Black-Next.js"><g id="next-black"><path id="EXT" d="M72.69,108h55.22v4.37H77.75V145.2h47.17v4.37H77.75v36.09h50.74V190H72.69Zm60.17,0h5.87l26,36.1L191.31,108,227.46,62.1l-59.39,85.74L198.67,190h-6.1l-27.84-38.39-28,38.39h-6l30.83-42.19Zm68,4.37V108h62.93v4.37h-29V190h-5.06V112.32Z"/><polygon id="Type-something" points="3.59 107.95 9.92 107.95 97.18 237.9 61.12 190.03 8.89 114.16 8.66 190.03 3.59 190.03 3.59 107.95"/><path d="M263.28,184.34a1.83,1.83,0,0,0,0-3.65,1.83,1.83,0,0,0,0,3.65Zm5-4.81c0,3.05,2.2,5,5.42,5,3.42,0,5.49-2,5.49-5.61V166.43h-2.76V179c0,2-1,3-2.76,3a2.47,2.47,0,0,1-2.68-2.45Zm14.52-.15c.19,3.16,2.84,5.19,6.78,5.19,4.21,0,6.85-2.13,6.85-5.51,0-2.67-1.51-4.14-5.15-5l-2-.47c-2.31-.54-3.25-1.27-3.25-2.53,0-1.6,1.45-2.64,3.63-2.64s3.5,1,3.76,2.65h2.68c-.16-3-2.79-5.08-6.4-5.08-3.88,0-6.46,2.1-6.46,5.25,0,2.6,1.46,4.15,4.67,4.9l2.3.55c2.35.55,3.38,1.36,3.38,2.71,0,1.57-1.62,2.71-3.84,2.71-2.38,0-4-1.06-4.26-2.74Z"/></g></g></g></svg>