<svg id="Layer_1" data-name="Layer 1" xmlns="http://www.w3.org/2000/svg" viewBox="0 0 300 300"><defs><style>.cls-1{fill:#6082bb;}.cls-2{fill:#fff;}</style></defs><title>php</title><path class="cls-1" d="M150,223.28c-6.13-.23-12.26-.36-18.38-.72-8.45-.5-16.86-1.47-25.22-2.81a225.62,225.62,0,0,1-35.06-8.4,155.31,155.31,0,0,1-32.91-14.9A90.18,90.18,0,0,1,18.92,180.8,51.6,51.6,0,0,1,7.8,163c-3.84-10.9-2.86-21.46,2.38-31.68A60.54,60.54,0,0,1,23.73,114.3,107.7,107.7,0,0,1,47.24,98.45,180,180,0,0,1,83.52,84.91a236.9,236.9,0,0,1,26.63-5.38c6.74-1,13.51-1.66,20.31-2.14,9-.65,18.12-.79,27.19-.58,6.69.16,13.38.6,20,1.26a250.15,250.15,0,0,1,31.39,5A187.4,187.4,0,0,1,251.8,98a111.27,111.27,0,0,1,22.74,14.8,64.93,64.93,0,0,1,13.89,16.07,41.81,41.81,0,0,1,5.88,17,38.58,38.58,0,0,1-3,19.52,55.23,55.23,0,0,1-11.72,17,97,97,0,0,1-21.89,16.37,165.75,165.75,0,0,1-33.87,14.13,228.46,228.46,0,0,1-30.11,6.84q-11.88,1.89-23.87,2.72C163.22,222.92,156.6,223.17,150,223.28ZM195.6,115c-5.14,26.44-10.26,52.78-15.4,79.2h17.26l4.1-21h14.37a73.27,73.27,0,0,0,10.36-.67,30.77,30.77,0,0,0,14.54-5.72c10.28-7.73,14.92-18.18,14.7-30.91a20.52,20.52,0,0,0-2.45-9.53,20.08,20.08,0,0,0-11.79-9.57A37.63,37.63,0,0,0,229.06,115c-10.76,0-21.53,0-32.29,0ZM66.76,173.16h1.38c6.25-.06,12.49,0,18.73-.21a35.59,35.59,0,0,0,11-1.93c9-3.17,15.28-9.35,19.45-17.8a36.46,36.46,0,0,0,3.38-13.14,26.44,26.44,0,0,0-.74-9.62c-1.92-6.74-6.38-11.1-12.86-13.49a37.38,37.38,0,0,0-13-2c-10.68,0-21.37,0-32.05,0H60.8q-7.71,39.6-15.4,79.2H62.66Zm76.46-45.32c5.6,0,11,0,16.43,0a14.36,14.36,0,0,1,3.95.83,4.26,4.26,0,0,1,3,3.49,14.28,14.28,0,0,1-.16,5.49q-3.3,17.06-6.63,34.11c-.08.42-.13.85-.2,1.31H177c.14-.73.29-1.43.43-2.13q3.23-16.54,6.44-33.1a31.86,31.86,0,0,0,.8-10c-.55-4.56-2.72-8-6.91-10a26.4,26.4,0,0,0-4.33-1.59A45.91,45.91,0,0,0,161.54,115c-4.86,0-9.71,0-14.57,0-.39,0-.78,0-1.23-.06,1.36-7,2.7-13.93,4.06-20.91H132.67l-15.38,79.11h17.13Z"/><path class="cls-2" d="M195.6,115h1.17c10.76,0,21.53,0,32.29,0a37.63,37.63,0,0,1,12.23,1.81,20.08,20.08,0,0,1,11.79,9.57,20.52,20.52,0,0,1,2.45,9.53c.22,12.73-4.42,23.18-14.7,30.91a30.77,30.77,0,0,1-14.54,5.72,73.27,73.27,0,0,1-10.36.67H201.56l-4.1,21H180.2C185.34,167.73,190.46,141.39,195.6,115Zm8.4,45.59a7.51,7.51,0,0,0,.89.1c3.91,0,7.82,0,11.73-.06a30.15,30.15,0,0,0,7.14-1c4.22-1.07,7.7-3.21,9.92-7a28.32,28.32,0,0,0,3.73-16.47,7.79,7.79,0,0,0-5.31-7.18c-.42-.16-.85-.32-1.28-.44a22.57,22.57,0,0,0-6.11-.94c-4.47,0-9,0-13.42-.06a6.78,6.78,0,0,0-.88.1C208.27,138.57,206.15,149.49,204,160.54Z"/><path class="cls-2" d="M66.76,173.16l-4.1,21H45.4q7.71-39.66,15.4-79.2H62c10.68,0,21.37,0,32.05,0a37.38,37.38,0,0,1,13,2c6.48,2.39,10.94,6.75,12.86,13.49a26.44,26.44,0,0,1,.74,9.62,36.46,36.46,0,0,1-3.38,13.14c-4.17,8.45-10.46,14.63-19.45,17.8a35.59,35.59,0,0,1-11,1.93c-6.24.16-12.48.15-18.73.21Zm2.44-12.59c.41,0,.67.07.93.07h9.93a38.68,38.68,0,0,0,8-.77c5.14-1.09,9.19-3.67,11.56-8.49a29.37,29.37,0,0,0,3.08-14.85,8.12,8.12,0,0,0-6-7.84,21.38,21.38,0,0,0-6.42-1.11c-4.59-.07-9.18-.07-13.76-.08a6,6,0,0,0-.85.11C73.46,138.61,71.34,149.52,69.2,160.57Z"/><path class="cls-2" d="M143.22,127.84l-8.8,45.24H117.29L132.67,94H149.8c-1.36,7-2.7,13.87-4.06,20.91.45,0,.84.06,1.23.06,4.86,0,9.71,0,14.57,0a45.91,45.91,0,0,1,11.85,1.34,26.4,26.4,0,0,1,4.33,1.59c4.19,2,6.36,5.46,6.91,10a31.86,31.86,0,0,1-.8,10q-3.22,16.55-6.44,33.1c-.14.7-.29,1.4-.43,2.13H159.62c.07-.46.12-.89.2-1.31q3.31-17.06,6.63-34.11a14.28,14.28,0,0,0,.16-5.49,4.26,4.26,0,0,0-3-3.49,14.36,14.36,0,0,0-3.95-.83C154.23,127.79,148.82,127.84,143.22,127.84Z"/><path class="cls-1" d="M204,160.54c2.15-11,4.27-22,6.41-32.95a6.78,6.78,0,0,1,.88-.1c4.47,0,9,0,13.42.06a22.57,22.57,0,0,1,6.11.94c.43.12.86.28,1.28.44a7.79,7.79,0,0,1,5.31,7.18,28.32,28.32,0,0,1-3.73,16.47c-2.22,3.84-5.7,6-9.92,7a30.15,30.15,0,0,1-7.14,1c-3.91,0-7.82,0-11.73.06A7.51,7.51,0,0,1,204,160.54Z"/><path class="cls-1" d="M69.2,160.57c2.14-11,4.26-22,6.4-33a6,6,0,0,1,.85-.11c4.58,0,9.17,0,13.76.08a21.38,21.38,0,0,1,6.42,1.11,8.12,8.12,0,0,1,6,7.84,29.37,29.37,0,0,1-3.08,14.85c-2.37,4.82-6.42,7.4-11.56,8.49a38.68,38.68,0,0,1-8,.77H70.13C69.87,160.64,69.61,160.6,69.2,160.57Z"/></svg>