<svg id="Layer_1" data-name="Layer 1" xmlns="http://www.w3.org/2000/svg" viewBox="0 0 300 300"><defs><style>.cls-1{fill:#60dafa;}</style></defs><title>React</title><path class="cls-1" d="M237.73,67.18a141.37,141.37,0,0,1-4.53,33.45c-.32,1.26-.19,2,1.25,2.54,7.54,2.71,15.15,5.28,22.54,8.37a75.18,75.18,0,0,1,26.43,18c11.15,12,11.5,27.22,1,40-5.58,6.81-12.74,11.63-20.37,15.79a143.61,143.61,0,0,1-29.24,11.58c-1.73.5-2.06,1.24-1.63,2.93,3.23,12.76,5.06,25.7,4.36,38.89-.5,9.31-2.34,18.29-8.09,26-6.7,9-15.88,12.1-26.74,11-9.71-1-18.29-5-26.48-10-8.8-5.35-16.64-11.95-24.17-18.93-1.77-1.65-2.12-1.64-4,0-9.84,9-20.09,17.4-32.17,23.27-7.17,3.48-14.67,5.86-22.78,5.81-10.46-.06-18.31-4.73-23.93-13.39a39.79,39.79,0,0,1-5.25-13,78.11,78.11,0,0,1-1.68-20.16A120,120,0,0,1,65,207.6c.58-2.65,1.06-5.32,1.73-7.94.44-1.72-.18-2.41-1.81-2.89a154.46,154.46,0,0,1-25.42-9.71c-6.64-3.32-13.06-7.08-18.53-12.12-6.26-5.78-11.36-12.44-12.68-21.2a27.27,27.27,0,0,1,4-18.8c5-8.15,12.28-13.75,20.37-18.46,10.31-6,21.39-10.15,32.81-13.43,1.55-.45,1.81-1.09,1.46-2.66-1.1-4.93-1.87-9.94-3-14.88A87.07,87.07,0,0,1,62.27,67c0-8.66.74-17.28,4.41-25.32C70.5,33.28,76.51,27.34,85.62,25c7.64-1.94,15-.63,22.34,1.89,10.73,3.7,20.06,9.73,28.7,16.92,3.84,3.19,7.6,6.48,11.34,9.79,1.18,1,1.95,1.18,3.24,0,8.23-7.57,16.79-14.75,26.5-20.41a67.78,67.78,0,0,1,20-8.15c7.44-1.6,14.73-1.39,21.65,2.08a29.44,29.44,0,0,1,14.19,15.47C236.91,50.58,237.73,59,237.73,67.18ZM149.3,194.28v0c4.93,0,9.87.07,14.8,0,3-.05,6-.35,9.05-.48a3.9,3.9,0,0,0,3.43-2.12c1.7-2.79,3.5-5.53,5.27-8.27a337,337,0,0,0,18-31.91,3.6,3.6,0,0,0,0-3.67c-3.35-6.18-6.5-12.47-10-18.56-4-6.83-8.19-13.49-12.33-20.21a5.18,5.18,0,0,0-4.44-2.86c-2.59-.07-5.17-.47-7.76-.46-12.35.06-24.69.23-37,.33a6.08,6.08,0,0,0-5.49,3,379.92,379.92,0,0,0-22.26,38.46,5,5,0,0,0,0,5.21c4.29,7.72,8.35,15.56,12.77,23.2,3.21,5.55,6.83,10.86,10.31,16.25a2.82,2.82,0,0,0,1.5,1.24,23,23,0,0,0,4.92.79C136.46,194.33,142.88,194.28,149.3,194.28ZM21.36,148.8a17.73,17.73,0,0,0,3.95,11.73c5.41,7,12.81,11.41,20.6,15,7.08,3.26,14.57,5.66,21.9,8.39,2.43.9,3,.44,4-2q5.83-15.09,11.82-30.13a4.6,4.6,0,0,0,.11-4c-1-2.11-2-4.26-2.81-6.44-3-7.81-6.06-15.62-9-23.47-.77-2.07-1.1-2.45-3.16-1.83a139.22,139.22,0,0,0-26,10.29c-5.62,3-11,6.35-15.42,11.08C24.07,141,21.47,144.89,21.36,148.8Zm203.22,83.41c-.35-3.87-.49-7.76-1.07-11.59-.92-6-2.13-12-3.19-18-.26-1.48-1.09-1.62-2.42-1.41-11.05,1.71-22.11,3.31-33.14,5.07A5.33,5.33,0,0,0,181.7,208c-7.09,8.63-14.06,17.36-21.11,26-.91,1.12-1,1.92.12,3a150.51,150.51,0,0,0,19.61,15.69,77.33,77.33,0,0,0,16.62,8.37c4.69,1.62,9.57,2.28,14.39.8,5.87-1.8,8.84-6.46,10.69-11.94A53.36,53.36,0,0,0,224.58,232.21Zm0-165.2c0-6.93-.67-13.67-3.52-20.1-2.12-4.79-5.48-8-10.63-9.09-5.5-1.19-10.71.16-15.73,2.19-13,5.28-23.81,13.92-34,23.38-1.06,1-.95,1.88-.07,2.88,1.89,2.12,3.84,4.19,5.61,6.4,5.13,6.41,10.14,12.91,15.29,19.29a5.3,5.3,0,0,0,3,1.81c3,.51,6,.6,9,1,4.14.58,8.27,1.26,12.39,2,3.88.67,7.77,1.34,11.6,2.24,1.62.38,2.39,0,2.7-1.52,1.13-5.49,2.45-11,3.27-16.49C224.09,76.38,224.18,71.67,224.54,67Zm-149,167c.12,6.32.7,13.43,4,20,2.79,5.62,7.13,8.58,13.52,8.6,6.12,0,11.62-2.1,17-4.72,10.75-5.27,19.94-12.74,28.64-20.85,2.1-2,1.9-2,0-4.29-6.75-8.2-13.36-16.5-20.1-24.69a5.3,5.3,0,0,0-3-1.81c-11-1.76-22.09-3.35-33.13-5.07-1.47-.23-2.37-.11-2.74,1.51C77.44,212.7,75.62,222.78,75.54,234Zm0-165.73a55.47,55.47,0,0,0,.4,6c1.19,7.74,2.52,15.46,3.82,23.18.22,1.29,1,1.71,2.32,1.41,1.5-.34,3-.67,4.52-.92,4.37-.73,8.75-1.46,13.13-2.1,4.88-.72,9.76-1.47,14.67-1.91a5.66,5.66,0,0,0,4.26-2.44c6.81-8.53,13.64-17,20.57-25.48,1-1.25,1.16-2-.08-3-4.2-3.53-8.24-7.27-12.57-10.63-8-6.25-16.65-11.59-26.65-14.14-9.66-2.47-17.77.23-21.63,10.8C76.17,54.85,75.6,60.91,75.53,68.25Zm203.29,81.82a17.43,17.43,0,0,0-3.22-9.43c-2.69-4.08-6.53-7.08-10.52-9.76-10.46-7-22.12-11.42-34.11-15-1.21-.36-1.9,0-2.4,1.24-3.93,10.19-7.89,20.38-12,30.52a6.1,6.1,0,0,0,.09,5.26q3.5,7.77,6.62,15.7c1.81,4.59,3.4,9.27,5,13.93.45,1.28,1.06,2.09,2.57,1.54,6.15-2.21,12.41-4.15,18.43-6.69,8.8-3.7,17.11-8.32,23.74-15.44A20.35,20.35,0,0,0,278.82,150.07ZM104.34,191.69c2.39,0,2.63-.35,1.68-2.21-.25-.5-.47-1-.75-1.49q-5.77-9.88-11.59-19.76a11.18,11.18,0,0,0-1.38-1.55,7.77,7.77,0,0,0-1.13,1.6c-2.25,6-4.44,12-6.69,18.06-.48,1.29,0,1.81,1.24,2,2.73.52,5.43,1.16,8.16,1.64C97.46,190.65,101.06,191.17,104.34,191.69Zm34.34-99.07,0-.22c1.85-.13,3.7-.41,5.54-.37,6.34.13,12.67.38,19,.56.45,0,1.13-.1,1.29-.38a1.59,1.59,0,0,0-.3-1.32c-.79-1.1-1.66-2.14-2.52-3.17-3.25-3.88-6.45-7.8-9.77-11.6-1.62-1.85-2.05-1.83-3.65,0-3.78,4.4-7.49,8.86-11.18,13.33a20.12,20.12,0,0,0-1.58,2.61Zm55.77,99.11,1.7-.29c5.15-.89,10.29-1.81,15.44-2.66,4.58-.76,4.71-.77,3.21-5.07-1.83-5.28-3.9-10.48-5.92-15.7a5.59,5.59,0,0,0-1.12-1.34,7.73,7.73,0,0,0-1.06,1.17q-6.48,11.1-12.91,22.22c-.21.35-.5.93-.36,1.13S194.21,191.62,194.45,191.73Zm21-77.88c.3-1.84-.58-2.07-1.56-2.24-6.21-1-12.4-2.13-18.61-3.15a6.6,6.6,0,0,0-1.88.26,9,9,0,0,0,.57,1.68q6.24,10.81,12.53,21.59a8.47,8.47,0,0,0,1.19,1.29,6.44,6.44,0,0,0,1.06-1.38q2.4-6,4.68-12.08C214.17,117.69,214.84,115.51,215.4,113.85Zm-75.66,93.82v0h-3c-1.37,0-1.73.55-.81,1.67q6.12,7.41,12.26,14.81c1,1.2,1.92,1.33,3,0,3.91-4.69,7.88-9.33,11.79-14a13.51,13.51,0,0,0,1.15-2,12.77,12.77,0,0,0-2.42-.47C154.41,207.65,147.07,207.67,139.74,207.67Zm-34.22-99.32c-.24,0-.42.05-.6.09-6.32,1.08-12.63,2.18-19,3.25-1.53.26-2,1-1.4,2.46,2.18,5.83,4.3,11.68,6.48,17.51a8.53,8.53,0,0,0,1.06,1.6,8.53,8.53,0,0,0,1.29-1.41c2.44-4.29,4.79-8.63,7.24-12.9,1.75-3,3.63-6,5.45-9C106.57,109.14,106.88,108.41,105.52,108.35Z"/><path class="cls-1" d="M174.61,150.1C175,163.18,163.41,175,149,174.75c-13.65-.26-25-12.64-24.52-26.17.49-12.84,10.82-24.18,26.06-23.64C162.81,125.37,175.19,136.14,174.61,150.1Z"/></svg>