<svg id="Layer_1" data-name="Layer 1" xmlns="http://www.w3.org/2000/svg" viewBox="0 0 50 50"><defs><style>.cls-1{fill:#cc6799;}</style></defs><title>Sass</title><path class="cls-1" d="M.46,21.27c0-.16,0-.33.08-.49a8.87,8.87,0,0,1,1.07-2.72,15,15,0,0,1,2-2.7,24.31,24.31,0,0,1,4.74-3.84,37.41,37.41,0,0,1,6.08-3.1,29.37,29.37,0,0,1,3-1.06,18.26,18.26,0,0,1,2.74-.57c.5-.07,1-.1,1.5-.13a8.7,8.7,0,0,1,1,0c.41,0,.82,0,1.23.06A10.54,10.54,0,0,1,25.93,7a9.1,9.1,0,0,1,3.2,1.33,5,5,0,0,1,1.92,2.36,5.78,5.78,0,0,1,.31,1.53,8.43,8.43,0,0,1-1.59,5.35A12.52,12.52,0,0,1,24.66,22,16.37,16.37,0,0,1,21,23.16c-.6.12-1.21.21-1.82.3-.3,0-.6.06-.9.07-.53,0-1.06,0-1.59,0a6.52,6.52,0,0,1-3-.77,4.38,4.38,0,0,1-1.63-1.48,4.17,4.17,0,0,1-.29-.72.35.35,0,0,1,.05-.24.22.22,0,0,1,.35-.07,1.51,1.51,0,0,1,.23.21,3.61,3.61,0,0,0,1.5,1,6,6,0,0,0,2,.43,5.53,5.53,0,0,0,.91,0c.54,0,1.09-.11,1.63-.2a14.93,14.93,0,0,0,3.35-1A14,14,0,0,0,26,18.12a9.61,9.61,0,0,0,2.26-3,5.28,5.28,0,0,0,.5-1.64,3.43,3.43,0,0,0-.17-1.68,2.58,2.58,0,0,0-1.16-1.3,5.87,5.87,0,0,0-2.15-.75,10.37,10.37,0,0,0-1.12-.13c-.23,0-.47,0-.71,0h-.87a17.52,17.52,0,0,0-3,.41,24.43,24.43,0,0,0-5.42,1.91A36.07,36.07,0,0,0,9.32,14.7a18.39,18.39,0,0,0-2.94,2.48,9.32,9.32,0,0,0-1.63,2.3,5.72,5.72,0,0,0-.58,1.95,5.63,5.63,0,0,0,0,.59,4.23,4.23,0,0,0,.38,1.79A7,7,0,0,0,6,25.9,24.8,24.8,0,0,0,8.49,28c.92.72,1.86,1.42,2.71,2.22l.67.64L13,30.28,16,28.59a2.49,2.49,0,0,1,.28-.15,2.22,2.22,0,0,0,.83-.75,8,8,0,0,1,2.6-2.08,3,3,0,0,1,1-.32,1.69,1.69,0,0,1,1.36.27,1.63,1.63,0,0,1,.54,1,4.5,4.5,0,0,1,0,1.79s0,.05,0,.09a1.25,1.25,0,0,1,.24-.18,1.33,1.33,0,0,1,.43-.13,1.13,1.13,0,0,1,.72.23.62.62,0,0,1,.24.76c-.21.83-.45,1.66-.66,2.5S23.19,33.16,23,34a6.63,6.63,0,0,0-.08,1,1.84,1.84,0,0,0,.06.4h0a.74.74,0,0,0,.12-.13c.17-.3.36-.61.51-.93.73-1.57,1.47-3.15,2.18-4.73.57-1.26,1.11-2.52,1.66-3.77A8.46,8.46,0,0,0,28,24.11a.61.61,0,0,1,.48-.5,8,8,0,0,1,.83-.15,8.35,8.35,0,0,1,1,0,1,1,0,0,1,.6.19.38.38,0,0,1,.16.48c-.18.58-.36,1.17-.51,1.77a4,4,0,0,0,0,1.43,5.07,5.07,0,0,0,.23,1.16c.16.38.35.75.52,1.13l0,0c.14-.22.27-.43.39-.64.66-1.2,1.34-2.39,2-3.59a11.28,11.28,0,0,0,.62-1.48c.16-.47.27-1,.4-1.43a.35.35,0,0,1,.22-.25,5.06,5.06,0,0,1,.85-.22A9.89,9.89,0,0,1,37,22a.89.89,0,0,1,.66.27.32.32,0,0,1,.08.35c-.17.57-.35,1.13-.5,1.69a3.82,3.82,0,0,0-.09,1.26,5.26,5.26,0,0,0,.6,2.22c.18.33.34.68.52,1l.64-.28a9.47,9.47,0,0,1,2.47-.65,11.72,11.72,0,0,1,1.33-.09,8,8,0,0,1,3.94.9,5.55,5.55,0,0,1,2.47,2.55,4.12,4.12,0,0,1,.41,2,3.08,3.08,0,0,1-.38,1.46,3.42,3.42,0,0,1-1.78,1.53,1.68,1.68,0,0,1-.4.06c-.1,0-.15,0-.19-.14a.16.16,0,0,1,.07-.19l.4-.28a3.32,3.32,0,0,0,1-1,2.4,2.4,0,0,0,.13-2.15,4,4,0,0,0-1.84-2.09,7,7,0,0,0-2.4-.84,11.7,11.7,0,0,0-1.87-.16,9,9,0,0,0-3.29.57c-.12.05-.12.1-.09.21a9.3,9.3,0,0,1,.31,1.15,3,3,0,0,1-.92,2.78,6.1,6.1,0,0,1-2.47,1.58,6.33,6.33,0,0,1-.94.28,1.13,1.13,0,0,1-1.36-1,3,3,0,0,1,.19-1.37,6.07,6.07,0,0,1,1.17-2,9.67,9.67,0,0,1,1.42-1.44c.07-.05.06-.09,0-.16-.23-.48-.48-1-.67-1.46A12.51,12.51,0,0,1,35,26.18a.13.13,0,0,0,0-.05.79.79,0,0,0-.08.16,38.73,38.73,0,0,1-2.68,4.57.53.53,0,0,0-.07.59A5,5,0,0,1,32.58,33a3.48,3.48,0,0,1-1.21,3.13,6,6,0,0,1-1.73,1,7,7,0,0,1-1.87.44,2.55,2.55,0,0,1-1-.09.74.74,0,0,1-.55-.77,1.24,1.24,0,0,1,.18-.53c.31-.43.65-.85,1-1.27l1.95-2.37c.17-.2.31-.42.47-.63a.17.17,0,0,0,0-.18c-.23-.48-.47-1-.69-1.45a11.82,11.82,0,0,1-.65-2.12l-.09-.47,0-.1-.33.81c-.74,1.8-1.52,3.58-2.43,5.31-.49.93-1,1.86-1.51,2.79a4.6,4.6,0,0,1-1.15,1.41,1.3,1.3,0,0,1-.82.36,1.13,1.13,0,0,1-1-.65,2.49,2.49,0,0,1-.29-1c0-.5,0-1,0-1.5a4.62,4.62,0,0,1,.08-.65h0s-.05.11-.08.17a29.21,29.21,0,0,1-1.37,3,3.22,3.22,0,0,1-.83,1.07,1.4,1.4,0,0,1-.91.31,3.39,3.39,0,0,1-.64-.06,1.39,1.39,0,0,1-.81-.57,5.33,5.33,0,0,1-.92-1.9,6.87,6.87,0,0,1-.33-2.29,12.18,12.18,0,0,1,.59-3.39l0-.11s0,0,0-.05l-2.74,1.57a4.91,4.91,0,0,1,.53,1.68,12.78,12.78,0,0,1,.11,1.51A8.66,8.66,0,0,1,13,38a7.77,7.77,0,0,1-1.72,2.9,8,8,0,0,1-3.53,2.25,7.07,7.07,0,0,1-1.44.29l-.39.05H5.35l-.59-.07a8.07,8.07,0,0,1-1-.22,2.11,2.11,0,0,1-1.09-.95,3.91,3.91,0,0,1-.6-2.58,5.48,5.48,0,0,1,1.31-3.07,12.4,12.4,0,0,1,2.22-2A29,29,0,0,1,9.67,32.1l.43-.23c-.06,0-.09-.08-.13-.11-.59-.43-1.17-.88-1.77-1.31-1.28-.9-2.6-1.77-3.82-2.77a15,15,0,0,1-2.48-2.5A7.41,7.41,0,0,1,.62,22.72C.56,22.49.51,22.25.46,22Zm10.81,11.6-.21.14a25.16,25.16,0,0,0-4,2.78A6.11,6.11,0,0,0,5.37,38a3.24,3.24,0,0,0-.27,1.71,1,1,0,0,0,.81.9,1.9,1.9,0,0,0,.63,0,4.63,4.63,0,0,0,1.58-.5,6.42,6.42,0,0,0,2.15-1.86,6,6,0,0,0,1.24-3.69,7.93,7.93,0,0,0-.08-1C11.4,33.4,11.33,33.15,11.27,32.87Zm6.11,1.07c0,.34.05.69.11,1a3.16,3.16,0,0,0,.25.79c.14.29.34.31.55.07a3.23,3.23,0,0,0,.44-.67c.32-.69.63-1.38.91-2.08a40.68,40.68,0,0,0,1.51-4.26,4.73,4.73,0,0,0,.24-1.35c0-.17-.1-.29-.27-.28a1.57,1.57,0,0,0-.48.09,3.07,3.07,0,0,0-1.17.92,8.37,8.37,0,0,0-.91,1.42A9.32,9.32,0,0,0,17.38,33.94ZM37,31l-.1.08a6.14,6.14,0,0,0-1.77,2.81,1.54,1.54,0,0,0-.05.43c0,.13.05.15.17.11l.12,0A2.83,2.83,0,0,0,36.92,33a2.77,2.77,0,0,0,.24-1A2.57,2.57,0,0,0,37,31Zm-6.49,2.18-.11.13c-.23.29-.44.59-.68.87l-1.53,1.73a.88.88,0,0,0-.12.15l0,.05a1.16,1.16,0,0,0,.28-.05,5.4,5.4,0,0,0,.65-.4,3.77,3.77,0,0,0,1.3-1.5A2.41,2.41,0,0,0,30.55,33.16Z"/></svg>