<svg id="Layer_1" data-name="Layer 1" xmlns="http://www.w3.org/2000/svg" viewBox="0 0 50 50"><defs><style>.cls-1{fill:indigo;}</style></defs><title>webdev</title><path class="cls-1" d="M19.11,29,27.59,10.8l7.26,3.36C32,20.24,29.21,26.29,26.38,32.39Z"/><path class="cls-1" d="M37.75,33.66l-1.38-2.23,8.89-5.58-8.89-5.57L37.75,18c.15.09.28.15.4.23,3.32,2.07,6.63,4.15,10,6.21a.7.7,0,0,1,.4.71,13.62,13.62,0,0,0,0,1.43.53.53,0,0,1-.28.54Q43.08,30.34,38,33.56Z"/><path class="cls-1" d="M12.26,18.07l1.37,2.21L4.74,25.85l8.89,5.58-1.38,2.23-.4-.22c-3.31-2.07-6.63-4.15-9.95-6.21a.71.71,0,0,1-.4-.71c0-.49,0-1,0-1.47a.65.65,0,0,1,.24-.46L12.12,18.1Z"/><path class="cls-1" d="M25.27,34.86,18.78,39.2,18,31.43Z"/></svg>